[img]http://img291.imageshack.us/img291/5682/streetdance3d0.jpg[/img]
[code]
Link :                       http://www.imdb.com/title/tt1447972/
Format                           : AVI
Format/Info                      : Audio Video Interleave
File size                        : 693 MiB
Duration                         : 1h 38mn
Overall bit rate                 : 985 Kbps
Writing application              : VirtualDubMod 1.5.10.2 (build 2540/release)
Writing library                  : VirtualDubMod build 2540/release

Video
Format                           : MPEG-4 Visual
Format profile                   : Simple@L3
Format settings, BVOP            : No
Format settings, QPel            : No
Format settings, GMC             : No warppoints
Format settings, Matrix          : Default (H.263)
Codec ID                         : XVID
Codec ID/Hint                    : XviD
Duration                         : 1h 38mn
Bit rate                         : 863 Kbps
Width                            : 640 pixels
Height                           : 368 pixels
Display aspect ratio             : 16/9
Frame rate                       : 23.976 fps
Resolution                       : 24 bits
Colorimetry                      : 4:2:0
Scan type                        : Progressive
Bits/(Pixel*Frame)               : 0.153
Stream size                      : 608 MiB (88%)
Writing library                  : XviD 1.1.2 (UTC 2006-11-01)

Format                           : MPEG Audio
Format version                   : Version 1
Format profile                   : Layer 3
Codec ID                         : 55
Codec ID/Hint                    : MP3
Duration                         : 1h 38mn
Bit rate mode                    : Constant
Bit rate                         : 112 Kbps
Channel(s)                       : 2 channels
Sampling rate                    : 48.0 KHz
Resolution                       : 16 bits
Stream size                      : 78.8 MiB (11%)
Alignment                        : Aligned on interleaves
Interleave, duration             : 42 ms (1.00 video frame)
Interleave, preload duration     : 504 ms
Writing library                  : LAME
[/code]
Screens:
[img]http://img842.imageshack.us/img842/6679/10314193.png[/img]
[img]http://img837.imageshack.us/img837/4250/87615980.png[/img]
[img]http://img137.imageshack.us/img137/1225/92252187.png[/img]
[img]http://img821.imageshack.us/img821/3042/64643619.png[/img]
